<?xml version="1.0" encoding="UTF-8" standalone="no"?>
<svg
   id="svg"
   version="1.1"
   width="500"
   height="150"
   viewBox="0 0 500 150"
   sodipodi:docname="Blue_dart_logo.svg"
   inkscape:version="1.4.3 (0d15f75, 2025-12-25)"
   xmlns:inkscape="http://www.inkscape.org/namespaces/inkscape"
   xmlns:sodipodi="http://sodipodi.sourceforge.net/DTD/sodipodi-0.dtd"
   xmlns="http://www.w3.org/2000/svg"
   xmlns:svg="http://www.w3.org/2000/svg">
  <defs
     id="defs1" />
  <sodipodi:namedview
     id="namedview1"
     pagecolor="#ffffff"
     bordercolor="#000000"
     borderopacity="0.25"
     inkscape:showpageshadow="2"
     inkscape:pageopacity="0.0"
     inkscape:pagecheckerboard="0"
     inkscape:deskcolor="#d1d1d1"
     inkscape:zoom="2.22"
     inkscape:cx="256.98198"
     inkscape:cy="32.207207"
     inkscape:window-width="1920"
     inkscape:window-height="1009"
     inkscape:window-x="-8"
     inkscape:window-y="-8"
     inkscape:window-maximized="1"
     inkscape:current-layer="svg" />
  <g
     id="svgg"
     transform="translate(50,42)">
    <path
       id="path0"
       d="M 3.27,1.289 C 3.116,2.001 2.943,2.808 2.887,3.083 2.831,3.358 2.688,3.733 2.57,3.917 2.452,4.1 2.302,4.737 2.237,5.333 2.171,5.929 1.944,6.792 1.731,7.25 1.519,7.708 1.262,8.421 1.16,8.833 c -1.287,5.242 -1.419,6.647 -0.687,7.303 0.8,0.715 0.946,0.816 1.373,0.951 0.222,0.07 0.502,0.267 0.622,0.437 0.12,0.17 0.323,0.309 0.452,0.309 0.565,0 0.58,0.542 0.58,20.388 0,17.85 0.025,19.753 0.264,19.845 0.662,0.254 32.586,0.108 32.845,-0.151 0.138,-0.138 0.32,-0.209 0.404,-0.157 0.085,0.052 0.154,0.016 0.154,-0.081 0,-0.098 0.227,-0.177 0.505,-0.177 0.295,0 0.545,-0.104 0.601,-0.25 0.053,-0.138 0.219,-0.253 0.37,-0.257 0.15,-0.004 0.574,-0.189 0.94,-0.41 0.367,-0.222 0.911,-0.527 1.209,-0.679 0.298,-0.151 0.541,-0.342 0.541,-0.423 0,-0.081 0.105,-0.148 0.233,-0.148 0.128,0 0.473,-0.225 0.767,-0.5 0.295,-0.275 0.605,-0.5 0.689,-0.5 0.084,0 0.226,-0.191 0.315,-0.425 0.092,-0.244 0.375,-0.499 0.663,-0.6 0.294,-0.102 0.54,-0.328 0.595,-0.545 0.051,-0.204 0.313,-0.5 0.581,-0.659 0.269,-0.158 0.575,-0.453 0.681,-0.654 0.106,-0.202 0.242,-0.404 0.302,-0.45 0.346,-0.266 1.174,-1.748 1.174,-2.103 0,-0.23 0.181,-0.658 0.402,-0.95 0.234,-0.309 0.487,-0.983 0.604,-1.614 0.111,-0.596 0.306,-1.249 0.432,-1.452 0.258,-0.416 0.338,-5.143 0.089,-5.242 -0.077,-0.031 -0.31,-0.768 -0.518,-1.639 -0.224,-0.938 -0.507,-1.705 -0.694,-1.881 -0.173,-0.164 -0.315,-0.473 -0.315,-0.686 0,-0.214 -0.15,-0.579 -0.333,-0.812 -0.183,-0.233 -0.333,-0.493 -0.333,-0.578 0,-0.272 -1.191,-1.695 -1.5,-1.793 -0.164,-0.052 -0.39,-0.317 -0.503,-0.589 -0.112,-0.272 -0.265,-0.494 -0.34,-0.494 -0.074,0 -0.555,-0.407 -1.068,-0.904 -1.02,-0.988 -2.187,-1.752 -3.076,-2.015 -0.702,-0.207 -0.833,-0.507 -0.282,-0.645 0.227,-0.057 0.461,-0.254 0.519,-0.437 0.058,-0.183 0.195,-0.333 0.304,-0.333 0.253,0 1.946,-1.717 1.946,-1.974 0,-0.106 0.091,-0.192 0.203,-0.192 0.218,0 0.963,-0.794 0.963,-1.026 0,-0.078 0.105,-0.141 0.232,-0.141 0.128,0 0.356,-0.281 0.508,-0.625 0.151,-0.344 0.459,-0.925 0.683,-1.292 0.224,-0.366 0.533,-1.004 0.687,-1.416 0.154,-0.413 0.38,-0.869 0.502,-1.013 0.122,-0.145 0.222,-0.636 0.222,-1.092 0,-0.456 0.084,-0.913 0.188,-1.017 0.442,-0.442 0.029,-6.494 -0.524,-7.67 C 46.132,8.951 45.94,8.455 45.905,8.273 45.87,8.09 45.779,7.898 45.704,7.846 45.628,7.793 45.439,7.412 45.284,7 44.976,6.181 44.093,5.056 43.816,5.129 43.72,5.154 43.681,5.112 43.729,5.034 43.776,4.957 43.669,4.789 43.491,4.66 43.313,4.532 43.167,4.33 43.167,4.213 43.167,4.096 43.066,4 42.943,4 42.821,4 42.638,3.819 42.537,3.598 42.436,3.377 42.183,3.141 41.975,3.075 41.766,3.009 41.456,2.778 41.286,2.561 41.115,2.344 40.866,2.167 40.733,2.167 40.599,2.167 40.447,2.055 40.394,1.918 40.342,1.782 40.006,1.582 39.647,1.475 39.289,1.367 38.913,1.179 38.811,1.056 38.709,0.934 38.377,0.833 38.073,0.833 37.769,0.833 37.47,0.753 37.41,0.655 37.349,0.557 37.195,0.518 37.066,0.567 36.938,0.616 36.833,0.584 36.833,0.495 c 0,-0.089 -0.15,-0.162 -0.333,-0.162 -0.183,0 -0.333,-0.072 -0.333,-0.16 0,-0.102 -5.962,-0.164 -16.308,-0.17 L 3.551,-0.006 3.27,1.289 M 54.961,0.233 c -0.186,0.14 -0.344,0.607 -0.445,1.319 -0.086,0.607 -0.215,1.199 -0.288,1.317 -0.114,0.185 -0.191,0.552 -0.463,2.214 -0.03,0.184 -0.135,0.533 -0.233,0.776 -0.098,0.244 -0.23,0.919 -0.293,1.5 -0.063,0.582 -0.218,1.311 -0.343,1.62 -0.126,0.309 -0.229,0.703 -0.229,0.875 0,0.172 -0.075,0.313 -0.167,0.313 -0.092,0 -0.167,0.439 -0.167,0.986 0,0.542 -0.071,1.011 -0.158,1.041 -0.641,0.226 -0.75,4.306 -0.115,4.306 0.129,0 0.274,0.15 0.322,0.333 0.053,0.205 0.227,0.334 0.451,0.334 0.2,0 0.555,0.15 0.788,0.333 0.233,0.183 0.546,0.333 0.695,0.333 0.618,0 0.624,0.178 0.594,20.498 -0.021,14.24 0.022,19.999 0.154,20.209 0.172,0.276 0.904,0.293 12.132,0.293 12.82,0 12.804,0.001 12.804,-0.834 0,-0.28 0.141,-0.938 0.314,-1.463 0.172,-0.524 0.366,-1.439 0.429,-2.034 0.064,-0.595 0.176,-1.158 0.249,-1.25 0.108,-0.137 0.285,-0.954 0.432,-2.002 0.013,-0.092 0.117,-0.392 0.231,-0.667 0.114,-0.275 0.248,-0.912 0.298,-1.416 0.051,-0.504 0.163,-1.007 0.249,-1.116 0.228,-0.289 0.627,-1.879 0.629,-2.507 10e-4,-0.296 0.19,-1.186 0.419,-1.977 0.229,-0.791 0.417,-1.757 0.417,-2.147 v -0.709 l -2.596,-0.12 C 79.643,40.524 77.1,40.524 75.419,40.59 l -3.055,0.12 -0.273,-0.529 C 71.841,39.697 71.821,37.958 71.867,20.014 71.906,4.677 71.872,0.334 71.712,0.185 71.399,-0.107 55.355,-0.061 54.961,0.233 m 33.91,0.142 C 88.631,0.862 88.306,2.488 88.414,2.663 88.46,2.738 88.397,2.837 88.274,2.885 88.15,2.932 88,3.328 87.94,3.765 87.881,4.202 87.734,4.677 87.614,4.821 87.495,4.965 87.255,5.683 87.08,6.417 86.905,7.15 86.666,7.849 86.548,7.97 86.43,8.091 86.333,8.443 86.333,8.751 c 0,0.308 -0.083,0.772 -0.185,1.03 -0.102,0.258 -0.364,1.144 -0.581,1.969 -0.218,0.825 -0.427,1.613 -0.464,1.751 -0.037,0.138 -0.151,0.559 -0.253,0.937 -0.359,1.332 0.256,2.562 1.281,2.562 0.124,0 0.47,0.187 0.77,0.416 0.301,0.229 0.748,0.433 0.995,0.454 0.628,0.052 0.597,-0.493 0.645,11.594 0.031,7.929 0.094,10.914 0.232,11 0.105,0.066 0.277,0.719 0.383,1.453 0.203,1.413 0.765,3.444 1.105,4 0.112,0.183 0.26,0.521 0.328,0.75 0.068,0.229 0.263,0.595 0.434,0.814 0.171,0.218 0.31,0.532 0.31,0.696 0,0.165 0.096,0.398 0.214,0.519 0.117,0.122 0.432,0.671 0.7,1.221 0.268,0.55 0.641,1.15 0.83,1.333 0.189,0.183 0.554,0.616 0.811,0.962 0.528,0.709 1.243,1.455 1.395,1.455 0.056,0 0.54,0.45 1.077,1 0.536,0.55 1.084,1 1.216,1 0.132,0 0.301,0.096 0.374,0.214 0.268,0.431 1.106,0.952 1.532,0.952 0.257,0 0.524,0.138 0.646,0.334 0.114,0.183 0.36,0.333 0.545,0.333 0.186,0 0.381,0.112 0.433,0.25 0.053,0.137 0.204,0.25 0.337,0.25 0.132,0 0.55,0.15 0.93,0.333 0.379,0.184 0.824,0.334 0.988,0.334 0.303,0 1.39,0.37 2.123,0.724 1.166,0.561 11.769,0.19 12.195,-0.428 0.053,-0.076 0.499,-0.186 0.992,-0.245 0.493,-0.058 1.087,-0.205 1.321,-0.327 0.233,-0.122 0.503,-0.223 0.6,-0.223 0.275,-0.002 1.072,-0.405 1.073,-0.543 10e-4,-0.069 0.251,-0.125 0.555,-0.125 0.382,0 0.665,-0.129 0.916,-0.417 0.199,-0.229 0.471,-0.416 0.603,-0.416 0.133,0 0.35,-0.154 0.482,-0.343 0.132,-0.188 0.41,-0.355 0.618,-0.37 0.208,-0.016 0.413,-0.162 0.456,-0.325 0.042,-0.162 0.193,-0.296 0.335,-0.296 0.141,0 0.451,-0.215 0.688,-0.478 0.238,-0.263 0.601,-0.53 0.807,-0.594 0.206,-0.064 0.418,-0.292 0.472,-0.506 0.054,-0.215 0.247,-0.429 0.429,-0.477 0.183,-0.048 0.373,-0.241 0.422,-0.43 0.049,-0.19 0.344,-0.501 0.654,-0.693 0.39,-0.241 0.565,-0.474 0.565,-0.752 0,-0.222 0.094,-0.403 0.209,-0.403 0.204,0 1.124,-0.874 1.124,-1.068 0,-0.054 0.152,-0.251 0.339,-0.437 0.186,-0.186 0.382,-0.56 0.436,-0.83 0.054,-0.27 0.202,-0.577 0.328,-0.682 0.127,-0.105 0.23,-0.366 0.23,-0.581 0,-0.22 0.146,-0.468 0.334,-0.569 0.216,-0.115 0.333,-0.349 0.333,-0.662 0,-0.267 0.07,-0.528 0.156,-0.581 0.304,-0.188 0.655,-1.106 0.768,-2.009 0.063,-0.503 0.181,-0.914 0.262,-0.914 0.081,0 0.147,-0.461 0.147,-1.024 0,-0.782 0.069,-1.073 0.292,-1.236 0.374,-0.274 0.544,-39.474 0.174,-40.067 -0.195,-0.312 -0.483,-0.323 -8.466,-0.335 l -8.264,-0.013 -0.043,0.629 c -0.023,0.345 -0.113,0.7 -0.201,0.787 -0.218,0.219 -0.21,7.259 0.008,7.259 0.092,0 0.167,0.262 0.167,0.583 0,0.321 -0.073,0.583 -0.162,0.583 -0.104,0 -0.179,5.142 -0.209,14.209 l -0.046,14.208 -0.375,0.713 c -0.206,0.393 -0.375,0.931 -0.375,1.197 0,0.373 -0.085,0.497 -0.375,0.541 -0.228,0.035 -0.353,0.153 -0.319,0.303 0.03,0.135 0,0.19 -0.069,0.122 -0.068,-0.069 -0.369,0.063 -0.669,0.291 -0.3,0.229 -0.663,0.416 -0.807,0.416 -0.143,0 -0.261,0.067 -0.261,0.148 0,0.764 -3.775,0.939 -4.783,0.221 -0.285,-0.203 -0.67,-0.369 -0.856,-0.369 -0.192,0 -0.384,-0.144 -0.444,-0.333 -0.058,-0.183 -0.239,-0.333 -0.402,-0.333 -0.371,0 -1.46,-2.015 -1.615,-2.988 -0.06,-0.374 -0.174,-0.679 -0.254,-0.679 -0.211,0 -0.19,-35.12 0.021,-35.25 0.092,-0.057 0.167,-0.457 0.167,-0.889 0,-1.437 0.495,-1.361 -8.891,-1.361 h -8.22 l -0.185,0.375 m 54.671,0.077 c -0.207,0.039 -0.375,0.17 -0.375,0.292 0,0.121 -0.103,0.26 -0.229,0.308 -0.237,0.091 -0.68,1.76 -0.843,3.17 -0.051,0.443 -0.194,1.043 -0.318,1.333 -0.383,0.893 -0.779,2.178 -0.778,2.522 0.001,0.351 -0.635,3.087 -1.171,5.034 -0.18,0.656 -0.33,1.406 -0.333,1.666 -0.003,0.26 -0.116,0.619 -0.25,0.797 -0.567,0.749 -0.133,1.758 0.856,1.992 0.265,0.063 0.782,0.185 1.149,0.27 0.367,0.086 0.967,0.263 1.333,0.394 l 0.667,0.239 0.042,19.716 c 0.024,10.844 0.099,19.772 0.167,19.84 0.221,0.219 32.806,0.239 33.07,0.02 0.128,-0.106 0.248,-0.405 0.268,-0.665 0.02,-0.26 0.155,-0.883 0.3,-1.385 0.145,-0.501 0.327,-1.474 0.405,-2.162 0.079,-0.687 0.307,-1.662 0.507,-2.166 0.201,-0.504 0.424,-1.453 0.496,-2.108 0.072,-0.655 0.204,-1.33 0.292,-1.5 0.846,-1.627 1.375,-6.556 0.753,-7.017 -0.336,-0.25 -1.883,-0.281 -1.883,-0.038 0,0.114 -2.313,0.145 -7.042,0.095 C 162.727,41.016 161,40.923 161,40.583 c 0,-0.124 -0.042,-1.356 -0.093,-2.737 l -0.093,-2.513 h 7.904 c 8.629,0 8.782,-0.017 8.782,-1.001 0,-0.171 0.225,-0.895 0.5,-1.609 0.326,-0.846 0.5,-1.602 0.5,-2.168 0,-0.478 0.075,-0.915 0.167,-0.972 0.091,-0.056 0.166,-0.281 0.166,-0.5 0,-0.218 0.065,-0.436 0.143,-0.485 0.079,-0.048 0.184,-0.484 0.234,-0.968 0.05,-0.484 0.248,-1.344 0.439,-1.912 0.191,-0.568 0.367,-1.505 0.391,-2.083 l 0.043,-1.052 -0.916,-0.108 c -0.505,-0.06 -4.679,-0.116 -9.276,-0.125 l -8.359,-0.017 -0.112,-1.708 c -0.062,-0.94 -0.088,-2.196 -0.058,-2.792 l 0.055,-1.083 8.526,-0.043 8.526,-0.043 0.101,-0.957 c 0.056,-0.526 0.145,-1.347 0.197,-1.824 0.053,-0.477 0.202,-0.955 0.331,-1.062 0.153,-0.127 0.235,-0.533 0.235,-1.161 0,-0.531 0.07,-0.991 0.155,-1.021 0.085,-0.031 0.263,-0.902 0.396,-1.937 0.157,-1.218 0.337,-1.986 0.512,-2.18 0.188,-0.206 0.271,-0.611 0.271,-1.317 0,-0.571 0.082,-1.069 0.186,-1.134 0.119,-0.073 0.149,-0.387 0.083,-0.866 -0.08,-0.587 -0.043,-0.795 0.17,-0.951 0.474,-0.347 0.173,-1.692 -0.405,-1.811 -0.52,-0.108 -36.594,-0.099 -37.159,0.009 m 194.75,0.666 c 0.206,0.039 0.543,0.039 0.75,0 0.206,-0.04 0.037,-0.073 -0.375,-0.073 -0.413,0 -0.582,0.033 -0.375,0.073 m -69.429,0.34 c 2.446,0.026 6.496,0.026 9,0 2.505,-0.026 0.504,-0.047 -4.446,-0.047 -4.95,0 -6.999,0.021 -4.554,0.047 m 16.603,-10e-4 c 0.761,0.031 1.961,0.031 2.667,0 0.706,-0.031 0.084,-0.056 -1.383,-0.056 -1.467,0 -2.044,0.026 -1.284,0.056 m 23.529,7.719 c -0.101,0.188 -0.159,0.417 -0.128,0.507 0.03,0.091 0.141,-0.063 0.246,-0.342 0.219,-0.581 0.153,-0.672 -0.118,-0.165 M 26.833,14.917 c 0.114,0.137 0.349,0.25 0.521,0.25 0.293,0 1.486,1.145 1.626,1.561 0.035,0.104 0.153,0.301 0.262,0.439 0.674,0.848 0.662,3.309 -0.017,3.569 C 29.101,20.784 29,20.949 29,21.103 c 0,0.409 -1.005,1.318 -1.717,1.553 -0.339,0.112 -0.616,0.272 -0.616,0.357 0,0.396 -5.127,0.175 -5.575,-0.24 l -0.425,-0.395 v -3.612 c 0,-2.654 0.055,-3.676 0.208,-3.85 0.314,-0.357 5.662,-0.356 5.958,10e-4 m 360.414,23.5 c 0,11.458 0.02,16.121 0.045,10.362 0.024,-5.759 0.024,-15.134 0,-20.834 -0.025,-5.699 -0.045,-0.987 -0.045,10.472 M 259.205,26.833 c 0,0.321 0.035,0.452 0.077,0.292 0.041,-0.16 0.041,-0.423 0,-0.583 -0.042,-0.161 -0.077,-0.03 -0.077,0.291 m 41.667,6.5 c 0,0.321 0.034,0.452 0.076,0.292 0.042,-0.16 0.042,-0.423 0,-0.583 -0.042,-0.161 -0.076,-0.03 -0.076,0.291 M 26.667,34.327 c 0,0.19 0.447,0.449 0.916,0.531 0.184,0.032 0.379,0.171 0.434,0.309 0.055,0.137 0.186,0.259 0.291,0.271 0.106,0.011 0.267,0.03 0.359,0.041 0.091,0.012 0.166,0.173 0.166,0.36 0,0.186 0.113,0.381 0.25,0.434 0.138,0.053 0.25,0.176 0.25,0.273 0,0.098 0.119,0.309 0.265,0.47 0.81,0.895 0.091,4.611 -0.897,4.644 -0.119,0.003 -0.419,0.212 -0.667,0.463 l -0.451,0.457 -3.208,0.061 -3.208,0.061 v -4.004 c 0,-2.202 0.045,-4.123 0.101,-4.268 0.118,-0.307 5.399,-0.407 5.399,-0.103 m 323.166,5.34 c -0.195,0.275 -0.318,0.5 -0.272,0.5 0.045,0 0.243,-0.225 0.439,-0.5 0.196,-0.275 0.319,-0.5 0.273,-0.5 -0.046,0 -0.244,0.225 -0.44,0.5 m -124.708,1.12 c 0.298,0.037 0.785,0.037 1.083,0 0.298,-0.037 0.054,-0.067 -0.541,-0.067 -0.596,0 -0.84,0.03 -0.542,0.067 m 28.095,7.338 c -0.173,0.553 -0.168,0.588 0.042,0.301 0.199,-0.271 0.337,-0.926 0.195,-0.926 -0.023,0 -0.13,0.281 -0.237,0.625 m 102.053,5.292 c 0.385,0.658 0.394,0.668 0.394,0.463 0,-0.097 -0.155,-0.353 -0.344,-0.57 l -0.343,-0.393 0.293,0.5 m 2.09,3.754 c 0.202,0.273 0.388,0.496 0.415,0.496 0.147,0 -0.36,-0.829 -0.552,-0.903 -0.135,-0.052 -0.078,0.116 0.137,0.407"
       stroke="none"
       fill="#065dac"
       fill-rule="evenodd" />
    <path
       id="path1"
       d="m 364,0.875 c 0,0.069 -0.167,0.292 -0.371,0.496 -0.204,0.204 -0.383,0.447 -0.399,0.541 -0.015,0.094 -0.079,0.505 -0.142,0.913 -0.063,0.408 -0.221,0.948 -0.351,1.2 -0.13,0.252 -0.237,0.76 -0.237,1.128 0,0.368 -0.108,0.99 -0.24,1.383 -0.132,0.393 -0.325,1.239 -0.428,1.881 -0.103,0.641 -0.253,1.316 -0.333,1.5 -0.08,0.183 -0.186,0.708 -0.236,1.166 -0.049,0.459 -0.24,1.406 -0.423,2.105 -0.387,1.472 -0.6,3.419 -0.443,4.045 l 0.109,0.434 h 4.478 c 4.881,0 5.033,0.034 4.509,1.013 -0.212,0.396 -0.208,40.316 0.004,40.653 0.17,0.271 14.868,0.493 16.783,0.254 l 0.887,-0.111 V 38.571 17.667 l 3.958,-0.014 c 6.135,-0.022 5.998,0.013 6.207,-1.592 0.152,-1.165 0.844,-4.467 1.252,-5.978 0.124,-0.458 0.282,-1.208 0.35,-1.666 0.142,-0.951 0.12,-0.863 0.359,-1.436 0.099,-0.239 0.23,-0.914 0.289,-1.5 0.059,-0.585 0.177,-1.136 0.263,-1.223 C 399.93,4.171 400,3.346 400,2.425 V 0.75 h -18 c -9.9,0 -18,0.056 -18,0.125 M 206.954,0.95 c -0.042,0.073 -0.13,0.426 -0.194,0.783 -0.065,0.357 -0.216,0.807 -0.336,1 -0.119,0.193 -0.262,0.705 -0.317,1.138 -0.055,0.434 -0.168,0.921 -0.251,1.084 -0.318,0.623 -0.532,1.141 -0.605,1.462 -0.218,0.97 -0.386,1.563 -0.488,1.729 -0.064,0.103 -0.142,0.318 -0.174,0.478 -0.033,0.161 -0.171,0.63 -0.309,1.043 -0.137,0.412 -0.3,1.012 -0.361,1.333 -0.061,0.321 -0.255,0.901 -0.432,1.29 -0.176,0.388 -0.32,1.012 -0.32,1.385 0,0.373 -0.066,0.637 -0.146,0.588 -0.131,-0.081 -0.434,0.781 -0.581,1.654 -0.031,0.183 -0.112,0.46 -0.179,0.615 -0.297,0.683 0.723,1.514 2.322,1.894 0.275,0.065 0.598,0.259 0.718,0.43 0.12,0.171 0.399,0.311 0.619,0.311 0.763,0 0.752,-0.287 0.748,19.733 -0.004,19.376 0.006,19.724 0.579,20.14 0.264,0.192 24.42,0.148 24.42,-0.044 0,-0.09 0.356,-0.163 0.791,-0.164 0.92,-10e-4 2.626,-0.485 3.472,-0.985 0.324,-0.191 0.716,-0.348 0.871,-0.349 0.155,-0.002 0.443,-0.096 0.639,-0.209 0.196,-0.113 0.871,-0.502 1.5,-0.865 0.629,-0.363 1.242,-0.757 1.364,-0.875 0.121,-0.119 0.364,-0.216 0.541,-0.216 0.177,0 0.303,-0.079 0.28,-0.176 -0.023,-0.097 0.296,-0.369 0.708,-0.604 0.938,-0.535 1.523,-0.99 1.5,-1.167 -0.009,-0.075 0.113,-0.163 0.271,-0.196 0.386,-0.079 0.729,-0.438 0.729,-0.761 0,-0.144 0.075,-0.262 0.167,-0.262 0.091,0 0.475,-0.3 0.853,-0.667 0.378,-0.367 0.752,-0.667 0.832,-0.667 0.079,0 0.254,-0.263 0.389,-0.585 0.134,-0.322 0.36,-0.63 0.502,-0.685 0.141,-0.054 0.257,-0.205 0.257,-0.336 0,-0.131 0.113,-0.281 0.25,-0.333 0.138,-0.053 0.25,-0.23 0.25,-0.394 0,-0.164 0.118,-0.343 0.261,-0.398 0.143,-0.055 0.214,-0.175 0.157,-0.267 -0.057,-0.093 -0.025,-0.168 0.072,-0.168 0.098,0 0.177,-0.188 0.177,-0.417 0,-0.238 0.096,-0.417 0.225,-0.417 0.123,0 0.36,-0.3 0.525,-0.666 0.165,-0.367 0.377,-0.667 0.47,-0.667 0.093,0 0.122,-0.047 0.064,-0.105 -0.058,-0.058 0.004,-0.262 0.139,-0.454 0.134,-0.192 0.244,-0.487 0.244,-0.657 0,-0.169 0.112,-0.42 0.25,-0.558 0.137,-0.137 0.25,-0.428 0.25,-0.646 0,-0.218 0.096,-0.457 0.214,-0.53 0.117,-0.073 0.316,-0.546 0.44,-1.05 0.125,-0.504 0.291,-0.959 0.369,-1.01 0.079,-0.051 0.225,-0.538 0.325,-1.083 0.1,-0.545 0.241,-1.065 0.313,-1.157 0.136,-0.174 0.181,-0.389 0.591,-2.833 0.522,-3.117 0.616,-4.368 0.524,-7 -0.051,-1.467 -0.142,-2.854 -0.202,-3.084 -0.06,-0.229 -0.2,-1.054 -0.31,-1.833 -0.111,-0.779 -0.318,-1.642 -0.46,-1.917 -0.143,-0.275 -0.313,-0.792 -0.378,-1.149 -0.064,-0.357 -0.243,-0.841 -0.397,-1.076 -0.154,-0.235 -0.254,-0.43 -0.224,-0.434 0.131,-0.017 -0.205,-1.079 -0.608,-1.924 -0.242,-0.504 -0.422,-0.973 -0.401,-1.042 0.02,-0.068 -0.05,-0.125 -0.157,-0.125 -0.107,0 -0.148,-0.046 -0.091,-0.103 0.056,-0.057 -0.151,-0.5 -0.461,-0.984 -0.31,-0.485 -0.519,-0.926 -0.464,-0.98 0.054,-0.055 0.027,-0.099 -0.061,-0.099 -0.087,0 -0.378,-0.375 -0.646,-0.834 C 248.316,12.375 248.037,12 247.965,12 c -0.072,0 -0.132,-0.075 -0.132,-0.167 0,-0.156 -0.239,-0.454 -1.008,-1.256 -0.179,-0.186 -0.325,-0.43 -0.325,-0.541 0,-0.112 -0.09,-0.203 -0.2,-0.203 -0.11,0 -0.51,-0.318 -0.888,-0.708 -0.912,-0.939 -1.829,-1.763 -2.745,-2.466 -0.413,-0.317 -0.788,-0.619 -0.834,-0.672 -0.046,-0.053 -0.308,-0.208 -0.583,-0.344 -0.669,-0.332 -1.278,-0.685 -1.583,-0.916 -0.138,-0.104 -0.513,-0.246 -0.834,-0.314 -0.32,-0.069 -0.675,-0.256 -0.787,-0.416 -0.113,-0.16 -0.463,-0.34 -0.78,-0.4 -0.316,-0.059 -0.601,-0.185 -0.632,-0.28 -0.032,-0.094 -0.373,-0.214 -0.759,-0.266 -0.386,-0.052 -0.661,-0.159 -0.612,-0.239 0.05,-0.08 -0.064,-0.145 -0.253,-0.145 -0.189,0 -0.343,-0.083 -0.343,-0.185 0,-0.113 -0.159,-0.145 -0.407,-0.083 -0.223,0.056 -0.453,0.027 -0.51,-0.065 -0.056,-0.092 -0.317,-0.167 -0.579,-0.167 -0.262,0 -0.822,-0.148 -1.245,-0.33 C 231.504,1.656 230.805,1.46 230.373,1.402 229.942,1.343 229.4,1.211 229.169,1.108 228.675,0.886 207.078,0.732 206.954,0.95 m 104.421,0.273 c -0.206,0.104 -0.375,0.303 -0.376,0.442 -0.001,0.138 -0.113,0.466 -0.25,0.729 -0.137,0.263 -0.249,0.647 -0.249,0.854 0,0.207 -0.113,0.696 -0.25,1.085 -0.138,0.39 -0.25,0.993 -0.25,1.341 0,0.347 -0.078,0.658 -0.174,0.689 -0.095,0.032 -0.247,0.582 -0.337,1.223 -0.091,0.64 -0.313,1.561 -0.493,2.045 -0.181,0.485 -0.329,1.062 -0.329,1.282 0,0.22 -0.061,0.438 -0.135,0.484 -0.075,0.046 -0.154,0.438 -0.176,0.871 -0.023,0.434 -0.112,0.92 -0.198,1.082 -0.087,0.162 -0.158,0.543 -0.159,0.847 0,0.304 -0.15,0.799 -0.333,1.099 -0.582,0.954 -0.192,2.371 0.652,2.371 0.267,0 3.097,1.224 3.154,1.364 0.031,0.074 0.2,0.136 0.375,0.136 0.313,0 0.32,0.407 0.341,19.916 0.011,10.955 0.03,20.01 0.041,20.125 0.054,0.538 17.436,0.661 17.775,0.125 0.092,-0.146 0.159,-3.025 0.16,-6.958 0.003,-6.926 0.08,-7.665 0.657,-6.25 0.251,0.617 0.699,1.37 1.054,1.773 0.16,0.182 0.292,0.488 0.292,0.68 0,0.191 0.11,0.505 0.244,0.696 0.134,0.192 0.197,0.396 0.139,0.454 -0.058,0.058 -0.018,0.105 0.089,0.105 0.107,0 0.194,0.174 0.194,0.386 0,0.211 0.137,0.531 0.303,0.71 0.266,0.285 0.687,1.443 0.736,2.022 0.009,0.111 0.077,0.164 0.152,0.118 0.12,-0.075 0.273,0.218 1.05,2.014 0.118,0.275 0.314,0.725 0.433,1 0.12,0.275 0.204,0.559 0.187,0.63 -0.017,0.072 0.114,0.286 0.29,0.475 0.177,0.19 0.371,0.544 0.432,0.787 0.06,0.243 0.208,0.554 0.327,0.692 0.12,0.137 0.27,0.423 0.335,0.634 l 0.117,0.384 10.394,-0.051 c 6.648,-0.032 10.451,-0.111 10.551,-0.217 0.344,-0.368 0.374,-0.891 0.069,-1.196 C 357.614,57.627 357,56.684 357,56.365 c 0,-0.178 -0.109,-0.414 -0.241,-0.525 -0.133,-0.11 -0.327,-0.457 -0.431,-0.772 -0.103,-0.314 -0.243,-0.537 -0.309,-0.496 -0.131,0.08 -1.186,-1.895 -1.186,-2.221 0,-0.109 -0.131,-0.341 -0.291,-0.516 -0.161,-0.175 -0.554,-0.828 -0.875,-1.451 -0.321,-0.624 -0.623,-1.172 -0.67,-1.217 -0.048,-0.046 -0.183,-0.271 -0.3,-0.5 -0.117,-0.229 -0.397,-0.717 -0.621,-1.084 -0.225,-0.366 -0.561,-0.982 -0.747,-1.368 -0.186,-0.386 -0.411,-0.746 -0.5,-0.801 -0.089,-0.055 -0.162,-0.265 -0.162,-0.467 0,-0.202 -0.15,-0.46 -0.334,-0.575 C 350.15,44.258 350,44.064 350,43.941 c 0,-0.122 -0.187,-0.44 -0.416,-0.707 -0.23,-0.266 -0.417,-0.544 -0.417,-0.617 0,-0.073 -0.145,-0.432 -0.322,-0.798 -0.317,-0.656 -0.317,-0.667 0,-0.865 0.177,-0.111 0.322,-0.3 0.322,-0.421 0,-0.12 0.075,-0.173 0.166,-0.116 0.092,0.056 0.167,-0.012 0.167,-0.152 0,-0.139 0.262,-0.516 0.583,-0.837 0.321,-0.321 0.584,-0.624 0.584,-0.674 0,-0.05 0.225,-0.326 0.5,-0.614 0.275,-0.287 0.5,-0.622 0.5,-0.744 0,-0.121 0.227,-0.338 0.505,-0.482 0.278,-0.144 0.466,-0.325 0.419,-0.402 -0.048,-0.078 0.024,-0.234 0.161,-0.347 0.136,-0.113 0.248,-0.298 0.248,-0.411 0,-0.113 0.184,-0.404 0.409,-0.646 0.224,-0.243 0.369,-0.441 0.322,-0.441 -0.048,0 0.068,-0.218 0.258,-0.484 0.189,-0.267 0.347,-0.585 0.35,-0.709 0.003,-0.123 0.115,-0.37 0.25,-0.548 0.134,-0.177 0.244,-0.459 0.244,-0.625 0,-0.165 0.103,-0.301 0.229,-0.301 0.138,0 0.271,-0.265 0.335,-0.667 0.059,-0.366 0.181,-0.666 0.272,-0.666 0.09,0 0.164,-0.144 0.164,-0.32 0,-0.176 0.106,-0.532 0.235,-0.792 0.432,-0.87 0.932,-2.676 0.932,-3.369 0,-0.377 0.061,-0.686 0.136,-0.686 0.534,0 0.556,-6.168 0.028,-8.008 -0.09,-0.315 -0.164,-0.761 -0.165,-0.991 -0.001,-0.23 -0.116,-0.638 -0.256,-0.907 -0.141,-0.269 -0.33,-0.82 -0.42,-1.225 -0.091,-0.404 -0.276,-0.845 -0.411,-0.98 -0.135,-0.136 -0.245,-0.381 -0.245,-0.545 0,-0.165 -0.154,-0.494 -0.341,-0.732 -0.188,-0.239 -0.329,-0.482 -0.315,-0.54 0.015,-0.059 -0.244,-0.401 -0.575,-0.762 -0.332,-0.36 -0.603,-0.802 -0.603,-0.982 0,-0.341 -0.545,-0.995 -0.83,-0.995 -0.09,0 -0.208,-0.178 -0.263,-0.395 C 352.686,8.221 352.459,7.945 352.237,7.827 352.015,7.708 351.83,7.529 351.826,7.43 351.821,7.331 351.525,7.025 351.167,6.75 350.808,6.475 350.512,6.156 350.508,6.042 350.501,5.857 350.296,5.767 349.976,5.808 349.917,5.815 349.67,5.637 349.426,5.411 349.182,5.185 348.883,5 348.762,5 348.64,5 348.447,4.887 348.333,4.75 348.219,4.612 348.028,4.5 347.909,4.5 c -0.119,0 -0.44,-0.187 -0.712,-0.417 -0.272,-0.229 -0.611,-0.416 -0.753,-0.416 -0.142,0 -0.3,-0.069 -0.353,-0.154 -0.052,-0.084 -0.45,-0.287 -0.884,-0.45 -0.435,-0.163 -0.828,-0.339 -0.874,-0.392 -0.098,-0.114 -1.848,-0.666 -2.064,-0.652 -0.082,0.005 -0.2,-0.074 -0.263,-0.176 C 341.943,1.741 341.485,1.611 340.987,1.554 340.49,1.497 339.946,1.356 339.778,1.241 339.356,0.953 311.943,0.935 311.375,1.223 m -48.273,0.23 c -0.02,0.02 -0.266,0.054 -0.547,0.076 -0.49,0.037 -0.522,0.087 -0.814,1.296 -0.167,0.692 -0.325,1.333 -0.352,1.425 -0.028,0.092 -0.096,0.392 -0.153,0.667 -0.057,0.275 -0.246,0.805 -0.42,1.177 -0.174,0.373 -0.316,0.92 -0.316,1.217 0,0.296 -0.106,0.744 -0.236,0.995 -0.129,0.25 -0.285,0.753 -0.346,1.116 -0.061,0.364 -0.228,0.961 -0.37,1.328 -0.142,0.367 -0.29,0.929 -0.328,1.25 -0.039,0.321 -0.166,0.733 -0.284,0.917 -0.575,0.893 -0.779,3.17 -0.353,3.916 0.131,0.23 0.241,0.347 0.244,0.261 0.008,-0.212 0.673,0.512 0.673,0.732 0,0.096 0.08,0.174 0.179,0.174 0.225,0 0.545,0.317 0.801,0.795 0.109,0.204 0.308,0.372 0.443,0.372 0.173,0 0.244,0.192 0.244,0.666 0,0.367 -0.066,0.667 -0.145,0.667 -0.163,0 -0.476,1.096 -0.58,2.024 -0.037,0.334 -0.131,0.709 -0.208,0.833 -0.177,0.283 -0.245,0.552 -0.352,1.393 -0.047,0.367 -0.194,0.791 -0.328,0.942 -0.133,0.151 -0.259,0.639 -0.28,1.083 -0.02,0.445 -0.195,1.146 -0.388,1.558 -0.302,0.648 -0.538,1.56 -0.593,2.292 -0.008,0.115 -0.068,0.208 -0.132,0.208 -0.065,0 -0.209,0.469 -0.32,1.042 -0.216,1.11 -0.672,2.681 -1.175,4.042 -0.17,0.458 -0.356,1.19 -0.414,1.626 -0.058,0.435 -0.213,0.998 -0.345,1.25 -0.131,0.251 -0.239,0.63 -0.239,0.842 -0.002,0.525 -0.517,2.086 -0.739,2.237 -0.098,0.068 -0.132,0.124 -0.075,0.125 0.057,0.002 -0.041,0.509 -0.218,1.128 -0.412,1.436 -0.769,2.858 -1.036,4.125 -0.116,0.55 -0.287,1.15 -0.379,1.333 -0.093,0.184 -0.254,0.499 -0.359,0.702 -0.104,0.203 -0.147,0.481 -0.094,0.618 0.105,0.275 -0.232,1.459 -0.458,1.606 -0.137,0.09 -0.253,0.759 -0.291,1.687 -0.011,0.246 -0.119,0.547 -0.242,0.67 -0.122,0.122 -0.265,0.521 -0.316,0.887 -0.052,0.365 -0.189,0.889 -0.305,1.164 -0.116,0.275 -0.227,0.556 -0.246,0.625 -0.019,0.068 -0.05,0.143 -0.069,0.166 -0.019,0.023 -0.06,0.23 -0.092,0.459 -0.031,0.229 -0.149,0.769 -0.263,1.201 -0.362,1.381 -0.89,1.299 8.344,1.299 4.468,0 8.464,-0.047 8.879,-0.104 0.876,-0.12 1.072,-0.375 1.364,-1.773 0.073,-0.345 0.199,-0.669 0.282,-0.72 0.083,-0.051 0.113,-0.154 0.066,-0.229 -0.046,-0.075 0.028,-0.229 0.164,-0.343 0.137,-0.113 0.248,-0.409 0.248,-0.657 0,-0.249 0.057,-0.508 0.125,-0.577 0.069,-0.069 0.128,-0.175 0.132,-0.236 0.003,-0.061 0.14,-0.387 0.304,-0.723 0.164,-0.337 0.314,-0.712 0.332,-0.834 0.019,-0.121 0.209,-0.58 0.422,-1.019 l 0.388,-0.798 7.58,0.048 c 8.688,0.055 8.062,-0.071 8.286,1.663 0.125,0.974 0.435,1.968 0.612,1.968 0.062,0 0.118,0.306 0.123,0.681 0.005,0.374 0.126,0.859 0.269,1.077 0.144,0.219 0.261,0.611 0.261,0.872 0,0.261 0.152,0.789 0.338,1.174 l 0.337,0.699 9.371,-0.043 9.37,-0.043 -0.052,-0.833 c -0.029,-0.459 -0.154,-0.99 -0.277,-1.18 -0.123,-0.191 -0.274,-0.753 -0.334,-1.25 -0.06,-0.497 -0.247,-1.204 -0.415,-1.57 -0.168,-0.367 -0.355,-1.024 -0.416,-1.46 -0.06,-0.435 -0.217,-0.998 -0.348,-1.25 -0.132,-0.251 -0.239,-0.668 -0.24,-0.926 -10e-4,-0.258 -0.081,-0.62 -0.179,-0.803 -0.098,-0.183 -0.211,-0.459 -0.251,-0.614 -0.47,-1.823 -1.254,-4.604 -1.466,-5.197 -0.147,-0.413 -0.268,-0.994 -0.269,-1.292 -0.002,-0.298 -0.082,-0.542 -0.179,-0.542 -0.097,0 -0.13,-0.075 -0.074,-0.166 0.057,-0.092 0.039,-0.167 -0.04,-0.167 -0.125,0 -0.554,-1.592 -0.634,-2.352 -0.015,-0.148 -0.085,-0.361 -0.154,-0.473 -0.138,-0.224 -0.44,-1.244 -0.938,-3.175 -0.178,-0.687 -0.353,-1.363 -0.388,-1.5 -0.036,-0.138 -0.185,-0.475 -0.33,-0.75 -0.145,-0.275 -0.264,-0.772 -0.265,-1.105 0,-0.333 -0.113,-0.697 -0.251,-0.812 -0.156,-0.129 -0.25,-0.497 -0.251,-0.978 0,-0.425 -0.12,-0.997 -0.265,-1.272 -0.146,-0.275 -0.295,-0.687 -0.333,-0.916 -0.037,-0.229 -0.11,-0.679 -0.163,-1 -0.053,-0.321 -0.191,-0.734 -0.307,-0.917 -0.116,-0.183 -0.259,-0.671 -0.317,-1.083 -0.153,-1.083 -0.212,-1.315 -0.588,-2.334 -0.425,-1.151 -0.813,-2.559 -0.935,-3.388 -0.051,-0.351 -0.205,-0.75 -0.342,-0.887 -0.137,-0.137 -0.249,-0.4 -0.249,-0.584 0,-0.304 -0.444,-2.095 -0.843,-3.402 -0.086,-0.282 -0.157,-0.67 -0.157,-0.862 0,-0.192 -0.068,-0.374 -0.151,-0.404 -0.083,-0.031 -0.196,-0.341 -0.25,-0.689 -0.099,-0.632 -0.649,-2.527 -0.943,-3.25 -0.086,-0.21 -0.156,-0.592 -0.156,-0.847 0,-0.255 -0.053,-0.517 -0.117,-0.582 -0.065,-0.064 -0.144,-0.319 -0.177,-0.565 -0.033,-0.246 -0.14,-0.544 -0.237,-0.661 -0.097,-0.116 -0.118,-0.212 -0.047,-0.212 0.072,0 0.012,-0.131 -0.133,-0.292 -0.145,-0.16 -0.315,-0.741 -0.379,-1.291 -0.063,-0.55 -0.17,-1.038 -0.238,-1.084 -0.28,-0.191 -0.478,-0.816 -0.59,-1.87 C 292.349,2.347 292.2,1.763 292.083,1.667 291.905,1.519 263.248,1.308 263.102,1.453 M 227.5,18.648 c 0,0.082 0.264,0.198 0.587,0.258 0.868,0.163 3.883,2.738 3.649,3.117 -0.043,0.07 0.073,0.208 0.259,0.308 0.186,0.099 0.338,0.324 0.338,0.498 0,0.175 0.067,0.359 0.149,0.41 0.417,0.257 1.275,2.471 1.329,3.428 0.008,0.137 0.133,1 0.278,1.916 0.372,2.352 -0.097,6.551 -0.788,7.051 -0.166,0.12 -0.301,0.404 -0.301,0.631 0,0.227 -0.113,0.455 -0.25,0.508 -0.138,0.053 -0.25,0.16 -0.25,0.237 0,0.91 -1.933,2.459 -4.238,3.398 -0.931,0.379 -3.465,0.544 -3.682,0.239 -0.104,-0.147 -0.147,-4.202 -0.118,-11.189 L 224.507,18.5 h 1.497 c 0.823,0 1.496,0.067 1.496,0.148 m 108.333,0.401 c 0.23,0.049 0.586,0.096 0.792,0.104 0.216,0.008 0.375,0.12 0.375,0.264 0,0.137 0.059,0.25 0.131,0.25 0.234,0 1.221,0.909 1.266,1.166 0.024,0.138 0.17,0.541 0.324,0.896 0.357,0.825 0.388,2.86 0.045,2.992 -0.129,0.049 -0.284,0.313 -0.343,0.585 -0.06,0.272 -0.292,0.633 -0.516,0.801 -0.224,0.168 -0.407,0.393 -0.407,0.5 0,0.176 -0.708,0.526 -1.333,0.658 -0.206,0.043 -4.529,0.103 -5.542,0.076 -0.27,-0.007 -0.292,-0.324 -0.292,-4.266 v -4.258 l 2.542,0.071 c 1.398,0.039 2.729,0.111 2.958,0.161 m -56.681,3.326 c 0.113,0.527 0.266,0.958 0.34,0.958 0.074,0 0.168,0.456 0.208,1.014 0.04,0.557 0.143,1.063 0.228,1.125 0.086,0.061 0.326,0.749 0.534,1.528 0.208,0.779 0.531,1.942 0.718,2.583 0.187,0.642 0.42,1.598 0.519,2.125 0.099,0.527 0.245,0.959 0.324,0.959 0.079,0 0.144,0.3 0.144,0.666 0,0.367 0.058,0.667 0.128,0.667 0.175,0 0.582,1.794 0.454,2.002 -0.13,0.21 -7.074,0.218 -7.406,0.007 -0.183,-0.116 -0.201,-0.244 -0.072,-0.539 0.093,-0.213 0.189,-0.755 0.213,-1.206 0.025,-0.451 0.142,-0.976 0.261,-1.167 0.12,-0.191 0.311,-0.872 0.426,-1.514 0.115,-0.641 0.286,-1.354 0.379,-1.583 0.094,-0.229 0.158,-0.474 0.143,-0.543 -0.015,-0.07 0.135,-0.707 0.333,-1.417 0.198,-0.709 0.411,-1.703 0.475,-2.207 0.063,-0.504 0.24,-1.198 0.393,-1.541 0.152,-0.344 0.224,-0.625 0.158,-0.625 -0.065,0 -0.029,-0.09 0.081,-0.2 0.11,-0.11 0.2,-0.383 0.2,-0.606 0,-0.576 0.368,-1.73 0.502,-1.575 0.062,0.072 0.204,0.562 0.317,1.089"
       stroke="none"
       fill="#33a44c"
       fill-rule="evenodd" />
  </g>
</svg>
